<?xml version="1.0" encoding="UTF-8"?>
<svg xmlns="http://www.w3.org/2000/svg" xmlns:xlink="http://www.w3.org/1999/xlink" width="842pt" height="596pt" viewBox="0 0 842 596" version="1.1">
<g id="surface1">
<path style=" stroke:none;fill-rule:evenodd;fill:rgb(8.616638%,63.476563%,70.117188%);fill-opacity:1;" d="M 97.347656 294.203125 L 97.347656 302.453125 L 97.582031 303.261719 C 97.625 303.476563 97.65625 303.851563 97.675781 304.085938 L 98.265625 308.308594 C 98.621094 310.210938 99.003906 311.875 99.53125 313.703125 C 102.253906 323.136719 107.8125 332.410156 114.476563 338.453125 C 151.148438 371.726563 204.34375 343.65625 204.21875 298.671875 C 204.136719 269.355469 181.527344 245.40625 153.105469 244.1875 C 144.804688 243.828125 137.480469 245.410156 130.640625 248.203125 C 127.488281 249.488281 124.539063 251.132813 121.949219 252.824219 C 120.460938 253.792969 119.386719 254.613281 118.09375 255.621094 C 112.21875 260.191406 107.117188 266.269531 103.289063 273.636719 C 101.796875 276.515625 100.519531 279.78125 99.527344 283.175781 C 98.460938 286.820313 98.078125 289.128906 97.667969 292.757813 C 97.636719 293.039063 97.601563 293.324219 97.542969 293.601563 C 97.523438 293.675781 97.570313 294.460938 97.417969 294.007813 C 97.40625 293.976563 97.378906 294.140625 97.347656 294.203125 Z M 185.921875 271.851563 C 184.050781 271.425781 181.886719 273.417969 179.976563 274.820313 L 164.300781 286.453125 C 157.332031 291.667969 150.558594 296.757813 143.679688 302.089844 C 138.976563 305.734375 136.761719 303.101563 131.660156 299.699219 C 128.039063 297.285156 124.421875 294.925781 120.824219 292.410156 C 119.375 291.394531 117.074219 289.476563 114.785156 289.488281 C 111.726563 289.496094 111.070313 292.632813 112.421875 295.074219 L 127.390625 316.59375 C 129.023438 318.777344 133.839844 324.988281 135.566406 326.542969 C 137.121094 327.9375 139.878906 328.851563 142.621094 328.105469 C 145.757813 327.253906 147.664063 324.429688 149.898438 321.84375 C 150.609375 321.019531 151.269531 320.148438 151.96875 319.324219 C 153.367188 317.679688 154.585938 316.023438 156.0625 314.238281 C 157.449219 312.558594 158.679688 310.890625 159.992188 309.21875 L 167.828125 298.925781 C 173.53125 291.339844 179.8125 282.929688 185.136719 275.152344 C 185.902344 274.035156 186.597656 273.4375 185.921875 271.851563 "/>
</g>
</svg>
